<?xml version="1.0" encoding="UTF-8" standalone="no"?>
<!-- Created with Inkscape (http://www.inkscape.org/) -->

<svg
   version="1.1"
   id="svg141"
   xml:space="preserve"
   width="682.66669"
   height="682.66669"
   viewBox="0 0 682.66669 682.66669"
   xmlns="http://www.w3.org/2000/svg"
   xmlns:svg="http://www.w3.org/2000/svg"><defs
     id="defs145"><clipPath
       clipPathUnits="userSpaceOnUse"
       id="clipPath155"><path
         d="M 0,512 H 512 V 0 H 0 Z"
         id="path153" /></clipPath></defs><g
     id="g147"
     transform="matrix(1.3333333,0,0,-1.3333333,0,682.66667)"><g
       id="g149"><g
         id="g151"
         clip-path="url(#clipPath155)"><g
           id="g157"
           transform="translate(267.9194,184.6875)"><path
             d="m 0,0 -31.071,7.332 -13.966,-114.926 c -0.906,-7.449 -7.241,-12.915 -14.561,-12.916 -0.591,0 -1.189,0.036 -1.79,0.109 -8.052,0.979 -13.786,8.299 -12.808,16.351 l 15.947,131.217 c 0.504,4.147 2.751,7.884 6.178,10.274 3.426,2.389 7.709,3.207 11.774,2.247 L 6.746,28.587"
             style="fill:none;stroke:#000000;stroke-width:15;stroke-linecap:round;stroke-linejoin:round;stroke-miterlimit:10;stroke-dasharray:none;stroke-opacity:1"
             id="path159" /></g><g
           id="g161"
           transform="translate(174.2871,201.0015)"><path
             d="m 0,0 -34.563,14.427 -24.24,-113.903 c -1.468,-6.902 -7.565,-11.631 -14.35,-11.632 -1.013,0 -2.04,0.105 -3.071,0.324 -7.934,1.689 -12.996,9.489 -11.308,17.422 l 27.925,131.217 c 0.91,4.274 3.675,7.922 7.545,9.951 3.872,2.029 8.445,2.228 12.477,0.546 L 11.313,27.106"
             style="fill:none;stroke:#000000;stroke-width:15;stroke-linecap:round;stroke-linejoin:round;stroke-miterlimit:10;stroke-dasharray:none;stroke-opacity:1"
             id="path163" /></g><g
           id="g165"
           transform="translate(233.8115,167.0278)"><path
             d="m 0,0 c 6.024,-0.861 12.229,-1.309 18.569,-1.309 33.436,0 63.155,12.373 82.031,33.02"
             style="fill:none;stroke:#000000;stroke-width:15;stroke-linecap:round;stroke-linejoin:round;stroke-miterlimit:10;stroke-dasharray:none;stroke-opacity:1"
             id="path167" /></g><g
           id="g169"
           transform="translate(165.3447,204.7339)"><path
             d="M 0,0 C 9.813,-12.953 23.562,-23.206 39.821,-29.945"
             style="fill:none;stroke:#000000;stroke-width:15;stroke-linecap:round;stroke-linejoin:round;stroke-miterlimit:10;stroke-dasharray:none;stroke-opacity:1"
             id="path171" /></g><g
           id="g173"
           transform="translate(294.7432,338.7627)"><path
             d="m 0,0 c -12.927,5.274 -27.266,8.21 -42.363,8.21 -57.039,0 -103.28,-41.896 -103.28,-93.577 0,-3.515 0.222,-6.955 0.639,-10.319"
             style="fill:none;stroke:#000000;stroke-width:15;stroke-linecap:round;stroke-linejoin:round;stroke-miterlimit:10;stroke-dasharray:none;stroke-opacity:1"
             id="path175" /></g><g
           id="g177"
           transform="translate(33.1245,339.0322)"><path
             d="m 0,0 c -15.803,-17.147 -25.625,-38.202 -25.625,-60.959 0,-48.108 43.896,-84.019 95.402,-94.564"
             style="fill:none;stroke:#000000;stroke-width:15;stroke-linecap:round;stroke-linejoin:round;stroke-miterlimit:10;stroke-dasharray:none;stroke-opacity:1"
             id="path179" /></g><g
           id="g181"
           transform="translate(223.8594,343.356)"><path
             d="m 0,0 c -21.104,23.802 -53.489,39.042 -89.808,39.042 -25.919,0 -51.733,-7.759 -73.221,-20.854"
             style="fill:none;stroke:#000000;stroke-width:15;stroke-linecap:round;stroke-linejoin:round;stroke-miterlimit:10;stroke-dasharray:none;stroke-opacity:1"
             id="path183" /></g><g
           id="g185"
           transform="translate(132.2578,180.3428)"><path
             d="m 0,0 c 0.598,-0.007 1.196,-0.017 1.794,-0.017 16.93,0 33.005,2.845 47.482,8.106"
             style="fill:none;stroke:#000000;stroke-width:15;stroke-linecap:round;stroke-linejoin:round;stroke-miterlimit:10;stroke-dasharray:none;stroke-opacity:1"
             id="path187" /></g><g
           id="g189"
           transform="translate(350.1206,293.8999)"><path
             d="M 0,0 V -8.337"
             style="fill:none;stroke:#000000;stroke-width:15;stroke-linecap:round;stroke-linejoin:round;stroke-miterlimit:10;stroke-dasharray:none;stroke-opacity:1"
             id="path191" /></g><g
           id="g193"
           transform="translate(450.5752,293.8999)"><path
             d="M 0,0 V -8.337"
             style="fill:none;stroke:#000000;stroke-width:15;stroke-linecap:round;stroke-linejoin:round;stroke-miterlimit:10;stroke-dasharray:none;stroke-opacity:1"
             id="path195" /></g><g
           id="g197"
           transform="translate(387.106,285.1929)"><path
             d="m 0,0 c 3.22,-3.695 7.957,-6.033 13.242,-6.033 5.286,0 10.022,2.338 13.242,6.033"
             style="fill:none;stroke:#000000;stroke-width:15;stroke-linecap:round;stroke-linejoin:round;stroke-miterlimit:10;stroke-dasharray:none;stroke-opacity:1"
             id="path199" /></g><g
           id="g201"
           transform="translate(355.2837,131.3096)"><path
             d="M 0,0 -7.561,62.219"
             style="fill:none;stroke:#000000;stroke-width:15;stroke-linecap:round;stroke-linejoin:round;stroke-miterlimit:10;stroke-dasharray:none;stroke-opacity:1"
             id="path203" /></g><g
           id="g205"
           transform="translate(319.1201,185.4126)"><path
             d="m 0,0 10.546,-86.782 c 0.906,-7.45 7.24,-12.915 14.561,-12.915 0.591,0 1.188,0.035 1.789,0.108 6.241,0.758 11.09,5.327 12.5,11.093"
             style="fill:none;stroke:#000000;stroke-width:15;stroke-linecap:round;stroke-linejoin:round;stroke-miterlimit:10;stroke-dasharray:none;stroke-opacity:1"
             id="path207" /></g><g
           id="g209"
           transform="translate(350.1206,352.4985)"><path
             d="M 0,0 C -5.4,29.9 6.927,70.99 27.332,89.269"
             style="fill:none;stroke:#000000;stroke-width:15;stroke-linecap:round;stroke-linejoin:round;stroke-miterlimit:10;stroke-dasharray:none;stroke-opacity:1"
             id="path211" /></g><g
           id="g213"
           transform="translate(427.6606,358.5537)"><path
             d="M 0,0 C -5.4,29.9 6.927,70.99 27.331,89.269"
             style="fill:none;stroke:#000000;stroke-width:15;stroke-linecap:round;stroke-linejoin:round;stroke-miterlimit:10;stroke-dasharray:none;stroke-opacity:1"
             id="path215" /></g><g
           id="g217"
           transform="translate(504.5,283.4331)"><path
             d="m 0,0 c 0,-56.926 -50.933,-96.576 -113.762,-96.576 -62.828,0 -113.761,39.65 -113.761,96.576 0,56.926 50.933,103.074 113.761,103.074 C -50.933,103.074 0,56.926 0,0 Z"
             style="fill:none;stroke:#000000;stroke-width:15;stroke-linecap:round;stroke-linejoin:round;stroke-miterlimit:10;stroke-dasharray:none;stroke-opacity:1"
             id="path219" /></g></g></g></g></svg>
