<?xml version="1.0" encoding="UTF-8" standalone="no"?>
<!-- Created with Inkscape (http://www.inkscape.org/) -->

<svg
   version="1.1"
   id="svg9"
   xml:space="preserve"
   width="682.66669"
   height="682.66669"
   viewBox="0 0 682.66669 682.66669"
   xmlns="http://www.w3.org/2000/svg"
   xmlns:svg="http://www.w3.org/2000/svg"><defs
     id="defs13"><clipPath
       clipPathUnits="userSpaceOnUse"
       id="clipPath43"><path
         d="M 0,512 H 512 V 0 H 0 Z"
         id="path41" /></clipPath></defs><g
     id="g15"
     transform="matrix(1.3333333,0,0,-1.3333333,0,682.66667)"><g
       id="g17"
       transform="translate(201.4414,438.0625)"><path
         d="M 0,0 V -229.094"
         style="fill:none;stroke:#000000;stroke-width:15;stroke-linecap:round;stroke-linejoin:round;stroke-miterlimit:10;stroke-dasharray:none;stroke-opacity:1"
         id="path19" /></g><g
       id="g21"
       transform="translate(122.5,208.9683)"><path
         d="M 0,0 V 229.094"
         style="fill:none;stroke:#000000;stroke-width:15;stroke-linecap:round;stroke-linejoin:round;stroke-miterlimit:10;stroke-dasharray:none;stroke-opacity:1"
         id="path23" /></g><g
       id="g25"
       transform="translate(122.5,383.1558)"><path
         d="M 0,0 H 78.965"
         style="fill:none;stroke:#000000;stroke-width:15;stroke-linecap:round;stroke-linejoin:round;stroke-miterlimit:10;stroke-dasharray:none;stroke-opacity:1"
         id="path27" /></g><g
       id="g29"
       transform="translate(122.5,318.1143)"><path
         d="M 0,0 H 78.965"
         style="fill:none;stroke:#000000;stroke-width:15;stroke-linecap:round;stroke-linejoin:round;stroke-miterlimit:10;stroke-dasharray:none;stroke-opacity:1"
         id="path31" /></g><g
       id="g33"
       transform="translate(122.5,253.0723)"><path
         d="M 0,0 H 78.965"
         style="fill:none;stroke:#000000;stroke-width:15;stroke-linecap:round;stroke-linejoin:round;stroke-miterlimit:10;stroke-dasharray:none;stroke-opacity:1"
         id="path35" /></g><g
       id="g37"><g
         id="g39"
         clip-path="url(#clipPath43)"><g
           id="g45"
           transform="translate(382.71,438.0732)"><path
             d="m 0,0 h 56.417 c 8.987,0 16.273,7.286 16.273,16.273 0,8.988 -7.286,16.273 -16.273,16.273 h -366.254 c -8.987,0 -16.273,-7.285 -16.273,-16.273 0,-8.987 7.286,-16.273 16.273,-16.273 h 279.629"
             style="fill:none;stroke:#000000;stroke-width:15;stroke-linecap:round;stroke-linejoin:round;stroke-miterlimit:10;stroke-dasharray:none;stroke-opacity:1"
             id="path47" /></g><g
           id="g49"
           transform="translate(420.1206,171.2129)"><path
             d="M 0,0 H -328.238"
             style="fill:none;stroke:#000000;stroke-width:15;stroke-linecap:round;stroke-linejoin:round;stroke-miterlimit:10;stroke-dasharray:none;stroke-opacity:1"
             id="path51" /></g><g
           id="g53"
           transform="translate(430.9336,470.6196)"><path
             d="m 0,0 c -0.415,18.781 -15.758,33.88 -34.638,33.88 h -280.591 c -18.88,0 -34.224,-15.099 -34.638,-33.88"
             style="fill:none;stroke:#000000;stroke-width:15;stroke-linecap:round;stroke-linejoin:round;stroke-miterlimit:10;stroke-dasharray:none;stroke-opacity:1"
             id="path55" /></g><g
           id="g57"
           transform="translate(81.0469,211.9707)"><path
             d="m 0,0 v -17.34 c 0,-9.018 3.962,-17.58 10.836,-23.418 l 130.791,-101.466 h 66.693 l 130.754,101.467 c 6.871,5.837 10.832,14.398 10.832,23.414 v 243.446"
             style="fill:none;stroke:#000000;stroke-width:15;stroke-linecap:round;stroke-linejoin:round;stroke-miterlimit:10;stroke-dasharray:none;stroke-opacity:1"
             id="path59" /></g><g
           id="g61"
           transform="translate(81.0469,438.0732)"><path
             d="M 0,0 V -195.749"
             style="fill:none;stroke:#000000;stroke-width:15;stroke-linecap:round;stroke-linejoin:round;stroke-miterlimit:10;stroke-dasharray:none;stroke-opacity:1"
             id="path63" /></g><g
           id="g65"
           transform="translate(222.6738,69.7471)"><path
             d="m 0,0 -0.021,0.016 v -14.263 c 0,-8.584 6.959,-15.543 15.543,-15.543 H 51.13 c 8.584,0 15.543,6.959 15.543,15.543 V 0"
             style="fill:none;stroke:#000000;stroke-width:15;stroke-linecap:round;stroke-linejoin:round;stroke-miterlimit:10;stroke-dasharray:none;stroke-opacity:1"
             id="path67" /></g><g
           id="g69"
           transform="translate(364.3687,127.9492)"><path
             d="m 0,0 31.103,-115.13 c 0.848,-3.139 3.695,-5.319 6.946,-5.319 h 20.299 c 4.281,0 7.615,3.715 7.153,7.971 L 49.171,38.157"
             style="fill:none;stroke:#000000;stroke-width:15;stroke-linecap:round;stroke-linejoin:round;stroke-miterlimit:10;stroke-dasharray:none;stroke-opacity:1"
             id="path71" /></g><g
           id="g73"
           transform="translate(100.9097,164.21)"><path
             d="m 0,0 -16.125,-148.738 c -0.462,-4.257 2.872,-7.972 7.153,-7.972 h 20.299 c 3.251,0 6.099,2.18 6.946,5.319 l 30.646,113.44"
             style="fill:none;stroke:#000000;stroke-width:15;stroke-linecap:round;stroke-linejoin:round;stroke-miterlimit:10;stroke-dasharray:none;stroke-opacity:1"
             id="path75" /></g></g></g></g></svg>
