<svg id="Capa_1" enable-background="new 0 0 495.812 495.812" height="512" viewBox="0 0 495.812 495.812" width="512" xmlns="http://www.w3.org/2000/svg"><g><path d="m240.469 329.938h15v15h-15z"/><path d="m114.311 213.151h15v15h-15z" transform="matrix(.785 -.619 .619 .785 -110.49 122.871)"/><path d="m90.759 231.733h14.999v14.999h-14.999z" transform="matrix(.785 -.619 .619 .785 -127.067 112.286)"/><path d="m67.206 250.315h15v15h-15z" transform="matrix(.785 -.619 .619 .785 -143.633 101.682)"/><path d="m366.538 213.151h15v15h-15z" transform="matrix(.619 -.785 .785 .619 -30.863 377.642)"/><path d="m390.091 231.733h14.999v14.999h-14.999z" transform="matrix(.619 -.785 .785 .619 -36.498 403.177)"/><path d="m413.643 250.315h15v15h-15z" transform="matrix(.619 -.785 .785 .619 -42.116 428.758)"/><path d="m451.46 231.45-49.246-38.854-9.291 11.776 49.246 38.854c10.176 8.028 14.544 20.827 11.398 33.401-3.145 12.574-13.023 21.809-25.781 24.101l-12.909 2.32c-4.344.78-8.67 1.159-12.948 1.158-30.014-.002-57.42-18.634-68.006-47.727l-32.123-88.289c-2.31-6.347-1.663-13.323 1.773-19.139l6.115-10.349 71.41 56.34 9.291-11.776-23.212-18.313 68.102.052v-64.399l27.804-27.803-10.607-10.606-32.196 32.197v55.601l-72.132-.055-33.983-26.811 76.116-19.832v-62.69l27.804-27.803-10.609-10.607-32.196 32.197v57.31l-68.841 17.937c7.28-6.922 11.658-16.658 11.658-27.14 0-20.642-16.793-37.435-37.435-37.435h-9.507c3.471-17.131 18.644-30.066 36.783-30.066v-15c-26.431 0-48.354 19.624-51.991 45.065h-16.017c-3.638-25.441-25.562-45.065-51.992-45.065v15c18.138 0 33.311 12.935 36.783 30.065h-9.569c-20.642 0-37.435 16.793-37.435 37.435 0 10.511 4.393 20.262 11.698 27.184l-69.009-17.98v-57.31l-32.196-32.197-10.607 10.606 27.804 27.803v62.69l76.212 19.856-33.952 26.787-72.26.055v-55.6l-32.197-32.197-10.607 10.606 27.804 27.803v64.399l68.229-.052-84.283 66.497c-14.872 11.734-21.256 30.439-16.659 48.817 4.597 18.377 19.034 31.875 37.679 35.225l12.911 2.32c5.241.942 10.463 1.398 15.627 1.398 36.224 0 69.3-22.49 82.075-57.601l11.892-32.684c1.222 1.302 2.484 2.563 3.785 3.781-11.872 19.012-20.103 43.492-23.89 70.467l-61.798 44.423-15.026 97.317-27.651 21.545 9.219 11.832 32.349-25.205 14.974-96.983 45.985-33.055c-.271 4.751-.417 9.551-.417 14.389 0 37.297 8.137 72.477 22.911 99.059 13.833 24.889 32.112 39.817 52.089 42.81v16.507h15v-16.507c19.977-2.992 38.256-17.921 52.089-42.81 14.774-26.582 22.911-61.762 22.911-99.059 0-4.807-.144-9.574-.411-14.295l45.852 32.96 14.975 96.983 32.349 25.205 9.219-11.832-27.651-21.545-15.026-97.317-61.657-44.323c-3.776-26.976-11.996-51.465-23.856-70.489 1.295-1.209 2.554-2.461 3.774-3.758l11.855 32.583c12.776 35.114 45.849 57.602 82.076 57.601 5.16 0 10.388-.457 15.627-1.398l12.909-2.32c18.646-3.35 33.083-16.848 37.68-35.225 4.593-18.377-1.791-37.082-16.663-48.816zm-236.309-171.385h65.51c12.37 0 22.435 10.064 22.435 22.435 0 8.377-4.665 15.96-11.899 19.808-6.675-3.9-21.786-11.523-42.436-11.728-21.634-.215-37.468 7.829-44.141 11.727-7.335-4.384-11.902-11.925-11.902-19.807-.001-12.371 10.063-22.435 22.433-22.435zm-53.261 196.415c-12.095 33.239-46.146 52.824-80.953 46.568l-12.911-2.32c-12.757-2.292-22.636-11.527-25.78-24.101-3.146-12.574 1.223-25.373 11.398-33.401l132.481-104.522 6.114 10.348c3.437 5.816 4.083 12.792 1.773 19.139zm153.389 88.458c-.321 10.299-1.293 20.364-2.894 30.031h-128.957c-1.601-9.668-2.573-19.732-2.894-30.031h44.872v-15h-44.884c.321-10.312 1.307-20.375 2.902-30.031h128.962c1.596 9.656 2.582 19.72 2.903 30.031h-44.821v15zm-67.373 119.937c-15.702 0-30.833-10.576-43.077-29.938h86.155c-12.245 19.362-27.376 29.938-43.078 29.938zm51.155-44.937h-102.309c-4.2-9.164-7.623-19.245-10.245-29.969h122.798c-2.621 10.723-6.045 20.805-10.244 29.969zm-51.092-180c-4.802 0-9.593-.506-14.24-1.504l-3.15 14.665c5.682 1.221 11.532 1.839 17.391 1.839 15.96 0 31.263-4.597 44.304-12.911 7.357 12.141 13.125 26.735 17.061 42.88h-122.857c3.942-16.172 9.723-30.788 17.097-42.94 3.532 2.259 7.239 4.264 11.106 5.973l6.062-13.721c-10.712-4.733-19.97-12.157-26.948-21.559l14.313-39.338c3.85-10.579 2.772-22.206-2.955-31.899l-7.9-13.37c3.15-3.604 6.624-6.826 10.368-9.634 0 0 2.075-1.434 2.075-1.434 7.368-5.095 15.744-8.695 24.517-10.513 9.235-1.914 18.857-1.869 28.07.149 8.073 1.768 15.807 5.028 22.716 9.561 5.034 3.302 9.626 7.275 13.609 11.79l-7.948 13.451c-5.728 9.693-6.805 21.32-2.955 31.899l14.354 39.452c-12.721 17.068-32.686 27.164-54.09 27.164z"/><path d="m223.847 128.212 7.193 13.163c5.162-2.821 11.016-4.312 16.929-4.312 7.087 0 13.93 2.094 19.789 6.056l8.402-12.426c-8.351-5.646-18.099-8.63-28.191-8.63-8.419-.001-16.761 2.126-24.122 6.149z"/></g></svg>