<?xml version="1.0" encoding="UTF-8" standalone="no"?>
<!-- Created with Inkscape (http://www.inkscape.org/) -->

<svg
   version="1.1"
   id="svg2415"
   xml:space="preserve"
   width="682.66669"
   height="682.66669"
   viewBox="0 0 682.66669 682.66669"
   xmlns="http://www.w3.org/2000/svg"
   xmlns:svg="http://www.w3.org/2000/svg"><defs
     id="defs2419"><clipPath
       clipPathUnits="userSpaceOnUse"
       id="clipPath2429"><path
         d="M 0,512 H 512 V 0 H 0 Z"
         id="path2427" /></clipPath></defs><g
     id="g2421"
     transform="matrix(1.3333333,0,0,-1.3333333,0,682.66667)"><g
       id="g2423"><g
         id="g2425"
         clip-path="url(#clipPath2429)"><g
           id="g2431"
           transform="translate(9.999,256.001)"><path
             d="M 0,0 246,246 492,0 246,-246 Z"
             style="fill:none;stroke:#000000;stroke-width:20;stroke-linecap:round;stroke-linejoin:round;stroke-miterlimit:22.926;stroke-dasharray:none;stroke-opacity:1"
             id="path2433" /></g><g
           id="g2435"
           transform="translate(99.8262,166.6738)"><path
             d="m 0,0 c 27.596,18.145 66.43,25.453 79.392,54.394 11.858,26.478 21.994,59.515 45.961,76.772 20.627,14.853 48.481,0.832 32.895,-25.766 -18.931,-32.309 -21.946,-74.815 -21.946,-112.182 0,-48.54 -27.565,-43.803 -50.688,-78.831"
             style="fill:none;stroke:#000000;stroke-width:20;stroke-linecap:round;stroke-linejoin:round;stroke-miterlimit:22.926;stroke-dasharray:none;stroke-opacity:1"
             id="path2437" /></g><g
           id="g2439"
           transform="translate(143.874,126.876)"><path
             d="M 0,0 C 17.065,15.865 42.196,12.778 50.624,45.874"
             style="fill:none;stroke:#000000;stroke-width:20;stroke-linecap:round;stroke-linejoin:round;stroke-miterlimit:22.926;stroke-dasharray:none;stroke-opacity:1"
             id="path2441" /></g><g
           id="g2443"
           transform="translate(412.5518,344.9492)"><path
             d="m 0,0 c -11.868,-13.037 -25.608,-25.159 -33.225,-43.079 -16.105,-37.894 8.048,-63.705 -32.7,-132.114 -9.637,-16.177 -36.538,-52.567 -19.437,-88.065"
             style="fill:none;stroke:#000000;stroke-width:20;stroke-linecap:round;stroke-linejoin:round;stroke-miterlimit:22.926;stroke-dasharray:none;stroke-opacity:1"
             id="path2445" /></g><g
           id="g2447"
           transform="translate(443.7432,313.7568)"><path
             d="M 0,0 C -16.265,-14.959 -28.515,-33.406 -14.898,-56.989 7.254,-95.358 -41.044,-95.885 -32.413,-147.925"
             style="fill:none;stroke:#000000;stroke-width:20;stroke-linecap:round;stroke-linejoin:round;stroke-miterlimit:22.926;stroke-dasharray:none;stroke-opacity:1"
             id="path2449" /></g><g
           id="g2451"
           transform="translate(141.6592,296.6064)"><path
             d="M 0,0 C -6.664,-9.668 -12.943,-18.447 -19.692,-25.422 -36.857,-43.159 -73.747,-51.058 -102.296,-69.47 M 204.709,114.526 C 155.938,82.587 131.965,104.517 86.721,83.638 76.388,78.869 67.259,73.372 59.091,67.401"
             style="fill:none;stroke:#000000;stroke-width:20;stroke-linecap:round;stroke-linejoin:round;stroke-miterlimit:22.926;stroke-dasharray:none;stroke-opacity:1"
             id="path2453" /></g><g
           id="g2455"
           transform="translate(302.1406,455.3594)"><path
             d="m 0,0 c -14.236,-15.118 -32.798,-25.441 -57.527,-28.99 -16.409,-2.356 -34.593,3.998 -51.617,12.131"
             style="fill:none;stroke:#000000;stroke-width:20;stroke-linecap:round;stroke-linejoin:round;stroke-miterlimit:22.926;stroke-dasharray:none;stroke-opacity:1"
             id="path2457" /></g><g
           id="g2459"
           transform="translate(168.165,332.9687)"><path
             d="M 0,0 H 0.008"
             style="fill:none;stroke:#000000;stroke-width:20;stroke-linecap:round;stroke-linejoin:round;stroke-miterlimit:2.613;stroke-dasharray:none;stroke-opacity:1"
             id="path2461" /></g></g></g></g></svg>
