<svg xmlns="http://www.w3.org/2000/svg" version="1.1" xmlns:xlink="http://www.w3.org/1999/xlink" xmlns:svgjs="http://svgjs.com/svgjs" width="512" height="512" x="0" y="0" viewBox="0 0 512 512" style="enable-background:new 0 0 512 512" xml:space="preserve"><g transform="matrix(-1,0,0,1,512,0)"><path d="m437.019531 74.980469c-48.351562-48.351563-112.640625-74.980469-181.019531-74.980469s-132.667969 26.628906-181.019531 74.980469c-48.351563 48.355469-74.980469 112.640625-74.980469 181.019531s26.628906 132.667969 74.980469 181.019531c48.351562 48.351563 112.640625 74.980469 181.019531 74.980469s132.664062-26.628906 181.019531-74.980469c48.351563-48.351562 74.980469-112.636719 74.980469-181.019531 0-68.378906-26.628906-132.667969-74.980469-181.019531zm-39.390625 287.820312c-.011718.011719-.023437.023438-.035156.035157l-10.078125 10.078124c-8.476563 8.476563-15.523437 15.523438-15.78125 15.777344-12.765625 12.765625-30.902344 19.542969-52.402344 19.542969-43.46875 0-98.265625-27.800781-143.015625-72.546875-32.058594-32.058594-55.609375-69.117188-66.3125-104.347656-11.6875-38.46875-6.941406-70.832032 13.363282-91.132813.207031-.207031 5.515624-5.519531 12.433593-12.433593l13.148438-13.152344c.109375-.109375.214843-.21875.328125-.328125 8.046875-7.988281 18.71875-12.386719 30.0625-12.386719 11.382812 0 22.089844 4.429688 30.148437 12.46875.050781.050781.101563.105469.152344.15625l28.632813 28.632812c8.0625 8.0625 12.5 18.777344 12.5 30.175782 0 11.335937-4.386719 21.992187-12.359376 30.035156-.054687.054688-.109374.109375-.167968.167969l-15.234375 15.238281 70.179687 70.179688 15.234375-15.242188c.054688-.054688.109375-.109375.167969-.164062 8.042969-7.96875 18.707031-12.359376 30.035156-12.359376 11.398438 0 22.113282 4.441407 30.171875 12.5l28.675781 28.671876c.039063.039062.082032.082031.117188.117187.085938.085937.167969.167969.25.253906.097656.101563.199219.214844.300781.328125 16.054688 16.660156 15.878907 43.300782-.515625 59.734375zm0 0" fill="#ef7a05" data-original="#000000"></path></g></svg>