<svg id="Capa_1" enable-background="new 0 0 512 512" height="512" viewBox="0 0 512 512" width="512" xmlns="http://www.w3.org/2000/svg"><g><g><path d="m460.238 260.5c-4.142 0-7.5 3.358-7.5 7.5v64.794h-22.851c-21.568 0-39.116 17.547-39.116 39.116v22.851h-30.771c-4.142 0-7.5 3.358-7.5 7.5s3.358 7.5 7.5 7.5h31.948c7.622 0 13.823-6.201 13.823-13.823v-24.028c0-13.298 10.818-24.116 24.116-24.116h24.028c7.622 0 13.823-6.201 13.823-13.823v-65.971c0-4.142-3.358-7.5-7.5-7.5z"/><path d="m146.609 361.881h-20.234c-7.622 0-13.823 6.201-13.823 13.823v20.234c0 7.622 6.201 13.823 13.823 13.823h20.234c7.622 0 13.823-6.201 13.823-13.823v-20.234c.001-7.622-6.201-13.823-13.823-13.823zm-1.176 32.88h-17.88v-17.88h17.88z"/><path d="m453.915 361.881h-20.234c-7.622 0-13.823 6.201-13.823 13.823v20.234c0 7.622 6.201 13.823 13.823 13.823h20.234c7.622 0 13.823-6.201 13.823-13.823v-20.234c0-7.622-6.201-13.823-13.823-13.823zm-1.177 32.88h-17.88v-17.88h17.88z"/><path d="m210.473 354.293c-4.142 0-7.5 3.358-7.5 7.5v12.646c0 4.142 3.358 7.5 7.5 7.5s7.5-3.358 7.5-7.5v-12.646c0-4.142-3.358-7.5-7.5-7.5z"/><path d="m237.03 354.293c-4.142 0-7.5 3.358-7.5 7.5v12.646c0 4.142 3.358 7.5 7.5 7.5s7.5-3.358 7.5-7.5v-12.646c0-4.142-3.358-7.5-7.5-7.5z"/><path d="m263.588 354.293c-4.142 0-7.5 3.358-7.5 7.5v12.646c0 4.142 3.358 7.5 7.5 7.5s7.5-3.358 7.5-7.5v-12.646c0-4.142-3.358-7.5-7.5-7.5z"/><path d="m290.145 354.293c-4.142 0-7.5 3.358-7.5 7.5v12.646c0 4.142 3.358 7.5 7.5 7.5s7.5-3.358 7.5-7.5v-12.646c0-4.142-3.358-7.5-7.5-7.5z"/><path d="m316.702 354.293c-4.142 0-7.5 3.358-7.5 7.5v12.646c0 4.142 3.358 7.5 7.5 7.5s7.5-3.358 7.5-7.5v-12.646c0-4.142-3.358-7.5-7.5-7.5z"/><path d="m343.259 354.293c-4.142 0-7.5 3.358-7.5 7.5v12.646c0 4.142 3.358 7.5 7.5 7.5s7.5-3.358 7.5-7.5v-12.646c0-4.142-3.358-7.5-7.5-7.5z"/><path d="m369.817 381.939c4.142 0 7.5-3.358 7.5-7.5v-12.646c0-4.142-3.358-7.5-7.5-7.5s-7.5 3.358-7.5 7.5v12.646c0 4.142 3.358 7.5 7.5 7.5z"/><path d="m282.721 228.879c2.047 2.047 4.735 3.07 7.424 3.07 2.688 0 5.378-1.024 7.425-3.07l35.747-35.747c1.983-1.983 3.075-4.62 3.075-7.424s-1.092-5.441-3.075-7.424l-35.748-35.748c-4.095-4.093-10.755-4.093-14.848.001l-35.747 35.747c-1.983 1.983-3.075 4.62-3.075 7.424s1.092 5.441 3.075 7.424zm7.424-72.555 29.383 29.383-29.383 29.383-29.383-29.383z"/><path d="m447.611 5.256-271.611-.001c-4.142 0-7.5 3.358-7.5 7.5s3.358 7.5 7.5 7.5h230.33c-14.136 11.824-23.147 29.581-23.147 49.409 0 19.827 9.011 37.584 23.146 49.408h-341.921c-27.243 0-49.408-22.165-49.408-49.409s22.165-49.409 49.408-49.409h76.592c4.142 0 7.5-3.358 7.5-7.5s-3.358-7.5-7.5-7.5h-76.592c-35.514.001-64.408 28.894-64.408 64.409s28.894 64.408 64.408 64.408l3.882-.002v365.176c0 4.142 3.358 7.5 7.5 7.5s7.5-3.358 7.5-7.5v-45.222h20.726v45.222c0 4.142 3.358 7.5 7.5 7.5s7.5-3.358 7.5-7.5v-45.222h20.726v45.222c0 4.142 3.358 7.5 7.5 7.5s7.5-3.358 7.5-7.5v-45.222h20.726v45.222c0 4.142 3.358 7.5 7.5 7.5s7.5-3.358 7.5-7.5v-45.222h20.726v45.222c0 4.142 3.358 7.5 7.5 7.5s7.5-3.358 7.5-7.5v-45.222h20.726v45.222c0 4.142 3.358 7.5 7.5 7.5s7.5-3.358 7.5-7.5v-45.222h20.726v45.222c0 4.142 3.358 7.5 7.5 7.5s7.5-3.358 7.5-7.5v-45.222h20.726v45.222c0 4.142 3.358 7.5 7.5 7.5s7.5-3.358 7.5-7.5v-45.222h20.726v45.222c0 4.142 3.358 7.5 7.5 7.5s7.5-3.358 7.5-7.5v-45.222h20.726v45.222c0 4.142 3.358 7.5 7.5 7.5s7.5-3.358 7.5-7.5v-45.222h20.726v45.222c0 4.142 3.358 7.5 7.5 7.5s7.5-3.358 7.5-7.5v-45.222h20.726v45.222c0 4.142 3.358 7.5 7.5 7.5s7.5-3.358 7.5-7.5v-45.222h20.724v45.222c0 4.142 3.358 7.5 7.5 7.5s7.5-3.358 7.5-7.5v-429.582c0-35.508-28.883-64.397-64.389-64.407zm-211.219 153.837v-25.121l107.506-.062v25.183c0 2.804 1.092 5.441 3.076 7.424l19.189 19.19-19.189 19.19c-1.983 1.983-3.076 4.62-3.076 7.424v27.138h-27.138c-2.804 0-5.441 1.092-7.424 3.076l-19.19 19.189-19.19-19.189c-1.983-1.983-4.62-3.076-7.424-3.076h-27.138v-27.138c0-2.804-1.092-5.441-3.076-7.424l-19.189-19.19 19.189-19.19c1.982-1.983 3.074-4.62 3.074-7.424zm-37.939-16.044v-9.055l22.939-.013v23.248l-21.054 21.054c-1.983 1.983-3.075 4.62-3.075 7.424s1.092 5.441 3.075 7.424l21.054 21.055v29.774c0 5.79 4.71 10.5 10.5 10.5h29.774l21.055 21.054c1.983 1.983 4.62 3.075 7.424 3.075s5.441-1.092 7.424-3.075l21.055-21.054h29.774c5.79 0 10.5-4.71 10.5-10.5v-29.774l21.053-21.054c1.984-1.983 3.077-4.62 3.077-7.425s-1.093-5.442-3.076-7.424l-21.054-21.054v-23.327l22.939-.013v9.161c0 3.017 1.175 5.853 3.308 7.986l34.672 34.672-34.672 34.672c-2.133 2.133-3.308 4.969-3.308 7.986v49.034h-49.034c-3.017 0-5.853 1.175-7.986 3.308l-34.672 34.672-34.672-34.672c-2.133-2.133-4.969-3.308-7.986-3.308h-49.034v-49.034c0-3.017-1.175-5.853-3.308-7.986l-34.672-34.672 34.674-34.674c2.132-2.134 3.306-4.969 3.306-7.985zm298.547 295.974h-413.71v-304.962l29.262-.017v199.927c0 7.622 6.201 13.823 13.823 13.823h24.028c13.297 0 24.116 10.818 24.116 24.116v24.028c0 7.622 6.201 13.823 13.823 13.823h136.658c4.142 0 7.5-3.358 7.5-7.5s-3.358-7.5-7.5-7.5h-135.481v-22.851c0-21.569-17.547-39.116-39.116-39.116h-22.851v-198.759l55.901-.032v7.512l-36.207 36.207c-2.133 2.133-3.308 4.969-3.308 7.985 0 3.018 1.175 5.854 3.308 7.986l36.207 36.208v51.205c0 6.228 5.066 11.294 11.294 11.294h51.205l36.208 36.207c2.202 2.202 5.093 3.303 7.986 3.303 2.892 0 5.785-1.101 7.986-3.303l36.208-36.207h51.205c6.228 0 11.294-5.066 11.294-11.294v-51.205l36.207-36.208c4.403-4.403 4.403-11.568 0-15.972l-36.207-36.208v-7.634l55.901-.032v99.153c0 4.142 3.358 7.5 7.5 7.5s7.5-3.358 7.5-7.5v-102.173c11.535-3.809 21.631-10.8 29.262-19.92v328.116zm-49.408-319.951c-27.244 0-49.409-22.165-49.409-49.408s22.165-49.408 49.409-49.408c27.243-.001 49.408 22.164 49.408 49.407s-22.165 49.409-49.408 49.409z"/><path d="m447.592 41.929c-15.293 0-27.734 12.441-27.734 27.734s12.441 27.734 27.734 27.734c15.292 0 27.734-12.441 27.734-27.734 0-15.292-12.442-27.734-27.734-27.734zm0 40.469c-7.022 0-12.734-5.712-12.734-12.734 0-7.021 5.712-12.734 12.734-12.734 7.021 0 12.734 5.712 12.734 12.734 0 7.021-5.713 12.734-12.734 12.734z"/></g></g></svg>